<svg height="483pt" viewBox="-49 0 483 483.144" width="483pt" xmlns="http://www.w3.org/2000/svg"><path d="m192.070312 8c-101.617187 0-184 82.378906-184 184 0 101.601562 184 280 184 280s184-178.398438 184-280c0-101.621094-82.378906-184-184-184zm0 304c-66.273437 0-120-53.726562-120-120s53.726563-120 120-120c66.277344 0 120 53.726562 120 120-.074218 66.242188-53.753906 119.925781-120 120zm0 0" fill="#9bc9ff"/><path d="m208.070312 120h-32v56h-56v32h56v56h32v-56h56v-32h-56zm0 0" fill="#9bc9ff"/><g fill="#1e81ce"><path d="m192.070312 483.144531-5.597656-5.402343c-7.578125-7.34375-186.4023435-181.949219-186.4023435-285.742188 0-106.039062 85.9648435-192 191.9999995-192 106.039063 0 192 85.960938 192 192 0 103.792969-178.824218 278.398438-186.398437 285.742188zm0-467.144531c-97.15625.109375-175.886718 78.84375-176 176 0 87.335938 145.457032 238.046875 176 268.726562 30.53125-30.671874 176-181.414062 176-268.726562-.109374-97.15625-78.84375-175.890625-176-176zm0 0"/><path d="m192.070312 320c-70.691406 0-128-57.308594-128-128s57.308594-128 128-128c70.695313 0 128 57.308594 128 128-.082031 70.65625-57.339843 127.917969-128 128zm0-240c-61.855468 0-112 50.144531-112 112s50.144532 112 112 112c61.859376 0 112-50.144531 112-112-.0625-61.828125-50.167968-111.933594-112-112zm0 0"/><path d="m216.070312 272h-48v-56h-56v-48h56v-56h48v56h56v48h-56zm-32-16h16v-56h56v-16h-56v-56h-16v56h-56v16h56zm0 0"/></g></svg>